<svg viewBox="0 0 1440 198" fill="none" xmlns="http://www.w3.org/2000/svg">
<g filter="url(#filter0_d_719_417)">
<path d="M191.816 145.34C112.764 145.634 0 86.7031 0 86.7031V0H1440V95.2231C1440 95.2231 1402.95 109.224 1378.64 116.774C1332.42 131.125 1305.84 152.198 1257.58 145.34C1220.86 140.123 1208.83 113.649 1172.45 106.75C1129.56 98.6161 1103.97 110.011 1060.79 116.774C1012.24 124.377 986.784 154.777 938.626 145.34C906.016 138.95 895.777 117.405 864.553 106.75C747.937 66.9547 680.826 208.535 558.311 187.94C475.405 174.004 452.31 99.97 368.154 95.2231C296.124 91.1602 263.984 145.073 191.816 145.34Z" fill="#61A6FF"/>
</g>
<defs>
<filter id="filter0_d_719_417" x="-4" y="0" width="1448" height="198" filterUnits="userSpaceOnUse" color-interpolation-filters="sRGB">
<feFlood flood-opacity="0" result="BackgroundImageFix"/>
<feColorMatrix in="SourceAlpha" type="matrix" values="0 0 0 0 0 0 0 0 0 0 0 0 0 0 0 0 0 0 127 0" result="hardAlpha"/>
<feOffset dy="4"/>
<feGaussianBlur stdDeviation="2"/>
<feComposite in2="hardAlpha" operator="out"/>
<feColorMatrix type="matrix" values="0 0 0 0 0 0 0 0 0 0 0 0 0 0 0 0 0 0 0.25 0"/>
<feBlend mode="normal" in2="BackgroundImageFix" result="effect1_dropShadow_719_417"/>
<feBlend mode="normal" in="SourceGraphic" in2="effect1_dropShadow_719_417" result="shape"/>
</filter>
</defs>
</svg>
