<svg width="484" height="351" viewBox="0 0 484 351" fill="none" xmlns="http://www.w3.org/2000/svg">
<g clip-path="url(#clip0_718_305)">
<path d="M281.929 61.8774C291 61.8774 298.354 54.5451 298.354 45.5002C298.354 36.4554 291 29.123 281.929 29.123C272.858 29.123 265.505 36.4554 265.505 45.5002C265.505 54.5451 272.858 61.8774 281.929 61.8774Z" fill="#F2F2F2"/>
<path d="M409.34 304.933C433.753 286.392 445.413 255.235 438.113 225.514C437.932 224.775 437.74 224.039 437.539 223.303C432.699 205.661 420.726 188.894 403.276 183.256C388.624 178.523 372.63 182.163 357.344 180.281C327.337 176.586 304.073 152.376 287.704 127.029C271.335 101.682 258.755 73.309 237.004 52.3684C201.151 17.8514 142.666 10.4198 98.2131 32.8878C53.7606 55.3559 25.4448 105.203 26.6524 154.882C27.86 204.561 57.4376 252.058 100.392 277.258C116.171 286.515 134.422 293.074 152.585 290.779C168.344 288.788 182.664 280.344 198.35 277.837C223.011 273.896 247.516 285.014 268.846 297.97C290.176 310.926 310.78 326.283 335.019 332.289C358.555 338.121 387.713 321.358 409.34 304.933Z" fill="#F2F2F2"/>
<path d="M374.264 33.9311C373.729 33.5753 373.187 33.238 372.652 32.8945C357.182 23.0291 340.601 15.0145 323.251 9.01639L319.228 64.3537H293.724V0.93844C292.119 0.607226 290.501 0.294413 288.883 0V64.3537H258.576C241.891 64.3537 225.889 57.7449 214.092 45.9811C202.294 34.2172 195.666 18.262 195.666 1.62548V1.62542C194.042 1.97503 192.43 2.34918 190.819 2.74787V64.3537H166.133L162.301 11.5864C144.471 18.4047 127.544 27.3711 111.897 38.2859C111.626 38.47 111.355 38.6601 111.091 38.8441C109.731 39.7948 108.391 40.7639 107.056 41.7453V252.858H179.808L178.522 235.101L171.448 137.607H313.907L306.833 235.101L305.547 252.858H377.493V36.0656C376.423 35.3418 375.346 34.6303 374.264 33.9311ZM190.819 121.507H170.279L166.484 69.187H190.819V121.507ZM288.883 121.507H254.387V120.47C254.387 119.972 254.288 119.478 254.097 119.018C253.905 118.558 253.625 118.14 253.271 117.787C252.917 117.435 252.497 117.156 252.036 116.966C251.574 116.776 251.079 116.679 250.579 116.679H235.582C235.083 116.679 234.588 116.777 234.127 116.968C233.666 117.158 233.246 117.437 232.893 117.789C232.54 118.141 232.26 118.559 232.069 119.019C231.878 119.479 231.78 119.972 231.78 120.47V121.507H195.666V69.187H288.883V121.507ZM293.724 121.507V69.187H318.877L315.082 121.507H293.724Z" fill="#3F3D56"/>
<path d="M0 266.376C5.34383 272.69 11.1238 278.623 17.2976 284.133L466.702 284.747C472.876 279.237 478.656 273.303 484 266.99L0 266.376Z" fill="#3F3D56"/>
<path d="M304.756 209.518V262.086C304.756 262.756 305.024 263.398 305.499 263.872C305.974 264.345 306.618 264.612 307.29 264.612H385.414C386.086 264.612 386.73 264.345 387.206 263.872C387.681 263.398 387.948 262.756 387.948 262.086V209.518C387.947 208.849 387.679 208.208 387.204 207.735C386.729 207.262 386.086 206.995 385.414 206.995H307.29C306.618 206.995 305.975 207.262 305.5 207.735C305.025 208.208 304.757 208.849 304.756 209.518Z" fill="#3F3D56"/>
<path d="M306.589 210.172V261.437C306.589 261.795 306.732 262.138 306.986 262.391C307.24 262.644 307.584 262.787 307.943 262.788H384.764C385.123 262.787 385.467 262.644 385.721 262.391C385.975 262.138 386.118 261.795 386.119 261.437V210.172C386.118 209.814 385.976 209.47 385.722 209.217C385.468 208.963 385.124 208.82 384.764 208.819H307.943C307.584 208.82 307.239 208.963 306.985 209.217C306.732 209.47 306.589 209.814 306.589 210.172Z" fill="#61A6FF"/>
<path d="M303.122 272.338C303.266 272.517 303.448 272.661 303.655 272.76C303.862 272.859 304.088 272.909 304.318 272.908H387.971C388.2 272.908 388.426 272.857 388.632 272.758C388.839 272.66 389.021 272.517 389.165 272.34C389.309 272.163 389.412 271.956 389.465 271.734C389.519 271.513 389.523 271.282 389.476 271.058L388.177 264.908C388.124 264.657 388.008 264.424 387.84 264.229C387.673 264.034 387.459 263.885 387.219 263.793C387.045 263.725 386.86 263.69 386.673 263.69H305.611C305.424 263.69 305.239 263.725 305.065 263.793C304.825 263.885 304.611 264.034 304.444 264.229C304.276 264.424 304.161 264.657 304.107 264.908L302.808 271.058C302.762 271.282 302.766 271.512 302.821 271.734C302.875 271.955 302.978 272.161 303.122 272.338Z" fill="#2F2E41"/>
<path d="M383.802 266.339H385.778C385.944 266.339 386.078 266.205 386.078 266.04V265.097C386.078 264.932 385.944 264.798 385.778 264.798H383.802C383.636 264.798 383.502 264.932 383.502 265.097V266.04C383.502 266.205 383.636 266.339 383.802 266.339Z" fill="#3F3D56"/>
<path d="M378.649 266.339H380.624C380.79 266.339 380.925 266.205 380.925 266.04V265.097C380.925 264.932 380.79 264.798 380.624 264.798H378.649C378.483 264.798 378.348 264.932 378.348 265.097V266.04C378.348 266.205 378.483 266.339 378.649 266.339Z" fill="#3F3D56"/>
<path d="M373.496 266.339H375.472C375.638 266.339 375.772 266.205 375.772 266.04V265.097C375.772 264.932 375.638 264.798 375.472 264.798H373.496C373.33 264.798 373.196 264.932 373.196 265.097V266.04C373.196 266.205 373.33 266.339 373.496 266.339Z" fill="#3F3D56"/>
<path d="M368.343 266.339H370.319C370.485 266.339 370.619 266.205 370.619 266.04V265.097C370.619 264.932 370.485 264.798 370.319 264.798H368.343C368.177 264.798 368.043 264.932 368.043 265.097V266.04C368.043 266.205 368.177 266.339 368.343 266.339Z" fill="#3F3D56"/>
<path d="M363.19 266.339H365.166C365.331 266.339 365.466 266.205 365.466 266.04V265.097C365.466 264.932 365.331 264.798 365.166 264.798H363.19C363.024 264.798 362.889 264.932 362.889 265.097V266.04C362.889 266.205 363.024 266.339 363.19 266.339Z" fill="#3F3D56"/>
<path d="M358.037 266.339H360.013C360.179 266.339 360.313 266.205 360.313 266.04V265.097C360.313 264.932 360.179 264.798 360.013 264.798H358.037C357.871 264.798 357.737 264.932 357.737 265.097V266.04C357.737 266.205 357.871 266.339 358.037 266.339Z" fill="#3F3D56"/>
<path d="M352.884 266.339H354.86C355.026 266.339 355.16 266.205 355.16 266.04V265.097C355.16 264.932 355.026 264.798 354.86 264.798H352.884C352.718 264.798 352.584 264.932 352.584 265.097V266.04C352.584 266.205 352.718 266.339 352.884 266.339Z" fill="#3F3D56"/>
<path d="M347.732 266.339H349.707C349.873 266.339 350.008 266.205 350.008 266.04V265.097C350.008 264.932 349.873 264.798 349.707 264.798H347.732C347.566 264.798 347.431 264.932 347.431 265.097V266.04C347.431 266.205 347.566 266.339 347.732 266.339Z" fill="#3F3D56"/>
<path d="M342.578 266.339H344.554C344.72 266.339 344.854 266.205 344.854 266.04V265.097C344.854 264.932 344.72 264.798 344.554 264.798H342.578C342.412 264.798 342.278 264.932 342.278 265.097V266.04C342.278 266.205 342.412 266.339 342.578 266.339Z" fill="#3F3D56"/>
<path d="M337.425 266.339H339.401C339.567 266.339 339.701 266.205 339.701 266.04V265.097C339.701 264.932 339.567 264.798 339.401 264.798H337.425C337.259 264.798 337.125 264.932 337.125 265.097V266.04C337.125 266.205 337.259 266.339 337.425 266.339Z" fill="#3F3D56"/>
<path d="M332.273 266.339H334.249C334.414 266.339 334.549 266.205 334.549 266.04V265.097C334.549 264.932 334.414 264.798 334.249 264.798H332.273C332.107 264.798 331.972 264.932 331.972 265.097V266.04C331.972 266.205 332.107 266.339 332.273 266.339Z" fill="#3F3D56"/>
<path d="M327.119 266.339H329.095C329.261 266.339 329.396 266.205 329.396 266.04V265.097C329.396 264.932 329.261 264.798 329.095 264.798H327.119C326.953 264.798 326.819 264.932 326.819 265.097V266.04C326.819 266.205 326.953 266.339 327.119 266.339Z" fill="#3F3D56"/>
<path d="M321.966 266.339H323.942C324.108 266.339 324.242 266.205 324.242 266.04V265.097C324.242 264.932 324.108 264.798 323.942 264.798H321.966C321.8 264.798 321.666 264.932 321.666 265.097V266.04C321.666 266.205 321.8 266.339 321.966 266.339Z" fill="#3F3D56"/>
<path d="M316.814 266.339H318.79C318.955 266.339 319.09 266.205 319.09 266.04V265.097C319.09 264.932 318.955 264.798 318.79 264.798H316.814C316.648 264.798 316.513 264.932 316.513 265.097V266.04C316.513 266.205 316.648 266.339 316.814 266.339Z" fill="#3F3D56"/>
<path d="M311.66 266.339H313.636C313.802 266.339 313.937 266.205 313.937 266.04V265.097C313.937 264.932 313.802 264.798 313.636 264.798H311.66C311.494 264.798 311.36 264.932 311.36 265.097V266.04C311.36 266.205 311.494 266.339 311.66 266.339Z" fill="#3F3D56"/>
<path d="M306.507 266.339H308.483C308.649 266.339 308.783 266.205 308.783 266.04V265.097C308.783 264.932 308.649 264.798 308.483 264.798H306.507C306.341 264.798 306.207 264.932 306.207 265.097V266.04C306.207 266.205 306.341 266.339 306.507 266.339Z" fill="#3F3D56"/>
<path d="M383.862 268.909H385.838C386.004 268.909 386.139 268.775 386.139 268.609V267.667C386.139 267.501 386.004 267.367 385.838 267.367H383.862C383.697 267.367 383.562 267.501 383.562 267.667V268.609C383.562 268.775 383.697 268.909 383.862 268.909Z" fill="#3F3D56"/>
<path d="M378.71 268.909H380.686C380.852 268.909 380.986 268.775 380.986 268.609V267.667C380.986 267.501 380.852 267.367 380.686 267.367H378.71C378.544 267.367 378.41 267.501 378.41 267.667V268.609C378.41 268.775 378.544 268.909 378.71 268.909Z" fill="#3F3D56"/>
<path d="M373.557 268.909H375.533C375.699 268.909 375.833 268.775 375.833 268.609V267.667C375.833 267.501 375.699 267.367 375.533 267.367H373.557C373.391 267.367 373.256 267.501 373.256 267.667V268.609C373.256 268.775 373.391 268.909 373.557 268.909Z" fill="#3F3D56"/>
<path d="M368.403 268.909H370.379C370.545 268.909 370.68 268.775 370.68 268.609V267.667C370.68 267.501 370.545 267.367 370.379 267.367H368.403C368.238 267.367 368.103 267.501 368.103 267.667V268.609C368.103 268.775 368.238 268.909 368.403 268.909Z" fill="#3F3D56"/>
<path d="M363.251 268.909H365.227C365.393 268.909 365.527 268.775 365.527 268.609V267.667C365.527 267.501 365.393 267.367 365.227 267.367H363.251C363.085 267.367 362.951 267.501 362.951 267.667V268.609C362.951 268.775 363.085 268.909 363.251 268.909Z" fill="#3F3D56"/>
<path d="M358.098 268.909H360.074C360.24 268.909 360.374 268.775 360.374 268.609V267.667C360.374 267.501 360.24 267.367 360.074 267.367H358.098C357.932 267.367 357.798 267.501 357.798 267.667V268.609C357.798 268.775 357.932 268.909 358.098 268.909Z" fill="#3F3D56"/>
<path d="M352.945 268.909H354.921C355.087 268.909 355.222 268.775 355.222 268.609V267.667C355.222 267.501 355.087 267.367 354.921 267.367H352.945C352.78 267.367 352.645 267.501 352.645 267.667V268.609C352.645 268.775 352.78 268.909 352.945 268.909Z" fill="#3F3D56"/>
<path d="M347.792 268.909H349.768C349.934 268.909 350.068 268.775 350.068 268.609V267.667C350.068 267.501 349.934 267.367 349.768 267.367H347.792C347.626 267.367 347.492 267.501 347.492 267.667V268.609C347.492 268.775 347.626 268.909 347.792 268.909Z" fill="#3F3D56"/>
<path d="M342.639 268.909H344.615C344.781 268.909 344.915 268.775 344.915 268.609V267.667C344.915 267.501 344.781 267.367 344.615 267.367H342.639C342.473 267.367 342.339 267.501 342.339 267.667V268.609C342.339 268.775 342.473 268.909 342.639 268.909Z" fill="#3F3D56"/>
<path d="M337.487 268.909H339.462C339.628 268.909 339.763 268.775 339.763 268.609V267.667C339.763 267.501 339.628 267.367 339.462 267.367H337.487C337.321 267.367 337.186 267.501 337.186 267.667V268.609C337.186 268.775 337.321 268.909 337.487 268.909Z" fill="#3F3D56"/>
<path d="M332.333 268.909H334.309C334.475 268.909 334.609 268.775 334.609 268.609V267.667C334.609 267.501 334.475 267.367 334.309 267.367H332.333C332.167 267.367 332.033 267.501 332.033 267.667V268.609C332.033 268.775 332.167 268.909 332.333 268.909Z" fill="#3F3D56"/>
<path d="M327.18 268.909H329.156C329.322 268.909 329.456 268.775 329.456 268.609V267.667C329.456 267.501 329.322 267.367 329.156 267.367H327.18C327.014 267.367 326.88 267.501 326.88 267.667V268.609C326.88 268.775 327.014 268.909 327.18 268.909Z" fill="#3F3D56"/>
<path d="M322.028 268.909H324.003C324.169 268.909 324.304 268.775 324.304 268.609V267.667C324.304 267.501 324.169 267.367 324.003 267.367H322.028C321.862 267.367 321.727 267.501 321.727 267.667V268.609C321.727 268.775 321.862 268.909 322.028 268.909Z" fill="#3F3D56"/>
<path d="M316.874 268.909H318.85C319.016 268.909 319.15 268.775 319.15 268.609V267.667C319.15 267.501 319.016 267.367 318.85 267.367H316.874C316.708 267.367 316.574 267.501 316.574 267.667V268.609C316.574 268.775 316.708 268.909 316.874 268.909Z" fill="#3F3D56"/>
<path d="M311.721 268.909H313.697C313.863 268.909 313.997 268.775 313.997 268.609V267.667C313.997 267.501 313.863 267.367 313.697 267.367H311.721C311.555 267.367 311.421 267.501 311.421 267.667V268.609C311.421 268.775 311.555 268.909 311.721 268.909Z" fill="#3F3D56"/>
<path d="M306.569 268.909H308.544C308.71 268.909 308.845 268.775 308.845 268.609V267.667C308.845 267.501 308.71 267.367 308.544 267.367H306.569C306.403 267.367 306.268 267.501 306.268 267.667V268.609C306.268 268.775 306.403 268.909 306.569 268.909Z" fill="#3F3D56"/>
<path d="M341.094 271.991H361.105C361.271 271.991 361.405 271.857 361.405 271.692V270.749C361.405 270.584 361.271 270.45 361.105 270.45H341.094C340.928 270.45 340.793 270.584 340.793 270.749V271.692C340.793 271.857 340.928 271.991 341.094 271.991Z" fill="#3F3D56"/>
<path d="M319.892 220.035H318.143C317.613 220.035 317.183 220.464 317.183 220.993C317.183 221.521 317.613 221.95 318.143 221.95H319.892C320.422 221.95 320.852 221.521 320.852 220.993C320.852 220.464 320.422 220.035 319.892 220.035Z" fill="white"/>
<path d="M339.898 220.035H338.149C337.618 220.035 337.188 220.464 337.188 220.993C337.188 221.521 337.618 221.95 338.149 221.95H339.898C340.428 221.95 340.858 221.521 340.858 220.993C340.858 220.464 340.428 220.035 339.898 220.035Z" fill="white"/>
<path d="M345.566 220.035H343.817C343.286 220.035 342.856 220.464 342.856 220.993C342.856 221.521 343.286 221.95 343.817 221.95H345.566C346.096 221.95 346.526 221.521 346.526 220.993C346.526 220.464 346.096 220.035 345.566 220.035Z" fill="white"/>
<path d="M334.456 219.875H323.584C323.054 219.875 322.624 220.304 322.624 220.833C322.624 221.362 323.054 221.79 323.584 221.79H334.456C334.987 221.79 335.416 221.362 335.416 220.833C335.416 220.304 334.987 219.875 334.456 219.875Z" fill="white"/>
<path d="M361.131 219.875H350.259C349.729 219.875 349.299 220.304 349.299 220.833C349.299 221.362 349.729 221.79 350.259 221.79H361.131C361.661 221.79 362.091 221.362 362.091 220.833C362.091 220.304 361.661 219.875 361.131 219.875Z" fill="white"/>
<path d="M325.227 224.357H323.478C322.948 224.357 322.518 224.786 322.518 225.314C322.518 225.843 322.948 226.272 323.478 226.272H325.227C325.757 226.272 326.187 225.843 326.187 225.314C326.187 224.786 325.757 224.357 325.227 224.357Z" fill="white"/>
<path d="M345.233 224.357H343.484C342.953 224.357 342.523 224.786 342.523 225.314C342.523 225.843 342.953 226.272 343.484 226.272H345.233C345.763 226.272 346.193 225.843 346.193 225.314C346.193 224.786 345.763 224.357 345.233 224.357Z" fill="white"/>
<path d="M350.901 224.357H349.152C348.621 224.357 348.191 224.786 348.191 225.314C348.191 225.843 348.621 226.272 349.152 226.272H350.901C351.431 226.272 351.861 225.843 351.861 225.314C351.861 224.786 351.431 224.357 350.901 224.357Z" fill="white"/>
<path d="M339.791 224.197H328.919C328.389 224.197 327.959 224.626 327.959 225.155C327.959 225.684 328.389 226.112 328.919 226.112H339.791C340.321 226.112 340.751 225.684 340.751 225.155C340.751 224.626 340.321 224.197 339.791 224.197Z" fill="white"/>
<path d="M366.466 224.197H355.594C355.064 224.197 354.634 224.626 354.634 225.155C354.634 225.684 355.064 226.112 355.594 226.112H366.466C366.996 226.112 367.426 225.684 367.426 225.155C367.426 224.626 366.996 224.197 366.466 224.197Z" fill="white"/>
<path d="M330.562 228.679H328.813C328.282 228.679 327.853 229.108 327.853 229.637C327.853 230.166 328.282 230.594 328.813 230.594H330.562C331.092 230.594 331.522 230.166 331.522 229.637C331.522 229.108 331.092 228.679 330.562 228.679Z" fill="white"/>
<path d="M350.568 228.679H348.819C348.288 228.679 347.858 229.108 347.858 229.637C347.858 230.166 348.288 230.594 348.819 230.594H350.568C351.098 230.594 351.528 230.166 351.528 229.637C351.528 229.108 351.098 228.679 350.568 228.679Z" fill="white"/>
<path d="M356.236 228.679H354.487C353.956 228.679 353.526 229.108 353.526 229.637C353.526 230.166 353.956 230.594 354.487 230.594H356.236C356.766 230.594 357.196 230.166 357.196 229.637C357.196 229.108 356.766 228.679 356.236 228.679Z" fill="white"/>
<path d="M345.126 228.52H334.254C333.724 228.52 333.294 228.948 333.294 229.477C333.294 230.006 333.724 230.435 334.254 230.435H345.126C345.656 230.435 346.086 230.006 346.086 229.477C346.086 228.948 345.656 228.52 345.126 228.52Z" fill="white"/>
<path d="M371.801 228.52H360.929C360.399 228.52 359.969 228.948 359.969 229.477C359.969 230.006 360.399 230.435 360.929 230.435H371.801C372.331 230.435 372.761 230.006 372.761 229.477C372.761 228.948 372.331 228.52 371.801 228.52Z" fill="white"/>
<path d="M335.897 233.001H334.148C333.617 233.001 333.188 233.43 333.188 233.959C333.188 234.488 333.617 234.916 334.148 234.916H335.897C336.427 234.916 336.857 234.488 336.857 233.959C336.857 233.43 336.427 233.001 335.897 233.001Z" fill="white"/>
<path d="M355.903 233.001H354.154C353.623 233.001 353.193 233.43 353.193 233.959C353.193 234.488 353.623 234.916 354.154 234.916H355.903C356.433 234.916 356.863 234.488 356.863 233.959C356.863 233.43 356.433 233.001 355.903 233.001Z" fill="white"/>
<path d="M361.571 233.001H359.822C359.291 233.001 358.861 233.43 358.861 233.959C358.861 234.488 359.291 234.916 359.822 234.916H361.571C362.101 234.916 362.531 234.488 362.531 233.959C362.531 233.43 362.101 233.001 361.571 233.001Z" fill="white"/>
<path d="M350.461 232.842H339.589C339.059 232.842 338.629 233.27 338.629 233.799C338.629 234.328 339.059 234.757 339.589 234.757H350.461C350.991 234.757 351.421 234.328 351.421 233.799C351.421 233.27 350.991 232.842 350.461 232.842Z" fill="white"/>
<path d="M339.898 250.188H338.149C337.618 250.188 337.188 250.617 337.188 251.145C337.188 251.674 337.618 252.103 338.149 252.103H339.898C340.428 252.103 340.858 251.674 340.858 251.145C340.858 250.617 340.428 250.188 339.898 250.188Z" fill="white"/>
<path d="M345.566 250.188H343.817C343.286 250.188 342.856 250.617 342.856 251.145C342.856 251.674 343.286 252.103 343.817 252.103H345.566C346.096 252.103 346.526 251.674 346.526 251.145C346.526 250.617 346.096 250.188 345.566 250.188Z" fill="white"/>
<path d="M361.131 250.348H350.259C349.729 250.348 349.299 250.776 349.299 251.305C349.299 251.834 349.729 252.263 350.259 252.263H361.131C361.661 252.263 362.091 251.834 362.091 251.305C362.091 250.776 361.661 250.348 361.131 250.348Z" fill="white"/>
<path d="M319.892 250.188H318.143C317.613 250.188 317.183 250.617 317.183 251.145C317.183 251.674 317.613 252.103 318.143 252.103H319.892C320.422 252.103 320.852 251.674 320.852 251.145C320.852 250.617 320.422 250.188 319.892 250.188Z" fill="white"/>
<path d="M334.456 250.348H323.584C323.054 250.348 322.624 250.776 322.624 251.305C322.624 251.834 323.054 252.263 323.584 252.263H334.456C334.987 252.263 335.416 251.834 335.416 251.305C335.416 250.776 334.987 250.348 334.456 250.348Z" fill="white"/>
<path d="M325.227 245.866H323.478C322.948 245.866 322.518 246.294 322.518 246.823C322.518 247.352 322.948 247.781 323.478 247.781H325.227C325.757 247.781 326.187 247.352 326.187 246.823C326.187 246.294 325.757 245.866 325.227 245.866Z" fill="white"/>
<path d="M345.233 245.866H343.484C342.953 245.866 342.523 246.294 342.523 246.823C342.523 247.352 342.953 247.781 343.484 247.781H345.233C345.763 247.781 346.193 247.352 346.193 246.823C346.193 246.294 345.763 245.866 345.233 245.866Z" fill="white"/>
<path d="M350.901 245.866H349.152C348.621 245.866 348.191 246.294 348.191 246.823C348.191 247.352 348.621 247.781 349.152 247.781H350.901C351.431 247.781 351.861 247.352 351.861 246.823C351.861 246.294 351.431 245.866 350.901 245.866Z" fill="white"/>
<path d="M339.791 246.025H328.919C328.389 246.025 327.959 246.454 327.959 246.983C327.959 247.512 328.389 247.94 328.919 247.94H339.791C340.321 247.94 340.751 247.512 340.751 246.983C340.751 246.454 340.321 246.025 339.791 246.025Z" fill="white"/>
<path d="M330.562 241.544H328.813C328.282 241.544 327.853 241.973 327.853 242.501C327.853 243.03 328.282 243.459 328.813 243.459H330.562C331.092 243.459 331.522 243.03 331.522 242.501C331.522 241.973 331.092 241.544 330.562 241.544Z" fill="white"/>
<path d="M350.568 241.544H348.819C348.288 241.544 347.858 241.973 347.858 242.501C347.858 243.03 348.288 243.459 348.819 243.459H350.568C351.098 243.459 351.528 243.03 351.528 242.501C351.528 241.973 351.098 241.544 350.568 241.544Z" fill="white"/>
<path d="M356.236 241.544H354.487C353.956 241.544 353.526 241.973 353.526 242.501C353.526 243.03 353.956 243.459 354.487 243.459H356.236C356.766 243.459 357.196 243.03 357.196 242.501C357.196 241.973 356.766 241.544 356.236 241.544Z" fill="white"/>
<path d="M345.126 241.704H334.254C333.724 241.704 333.294 242.132 333.294 242.661C333.294 243.19 333.724 243.619 334.254 243.619H345.126C345.656 243.619 346.086 243.19 346.086 242.661C346.086 242.132 345.656 241.704 345.126 241.704Z" fill="white"/>
<path d="M335.897 237.222H334.148C333.617 237.222 333.188 237.65 333.188 238.179C333.188 238.708 333.617 239.137 334.148 239.137H335.897C336.427 239.137 336.857 238.708 336.857 238.179C336.857 237.65 336.427 237.222 335.897 237.222Z" fill="white"/>
<path d="M355.903 237.222H354.154C353.623 237.222 353.193 237.65 353.193 238.179C353.193 238.708 353.623 239.137 354.154 239.137H355.903C356.433 239.137 356.863 238.708 356.863 238.179C356.863 237.65 356.433 237.222 355.903 237.222Z" fill="white"/>
<path d="M361.571 237.222H359.822C359.291 237.222 358.861 237.65 358.861 238.179C358.861 238.708 359.291 239.137 359.822 239.137H361.571C362.101 239.137 362.531 238.708 362.531 238.179C362.531 237.65 362.101 237.222 361.571 237.222Z" fill="white"/>
<path d="M350.461 237.381H339.589C339.059 237.381 338.629 237.81 338.629 238.339C338.629 238.868 339.059 239.296 339.589 239.296H350.461C350.991 239.296 351.421 238.868 351.421 238.339C351.421 237.81 350.991 237.381 350.461 237.381Z" fill="white"/>
<path d="M310.592 300.842L302.38 287.899L328.155 267.411L338.794 255.658C340.176 254.131 341.936 252.993 343.898 252.357C345.86 251.72 347.954 251.609 349.973 252.033C351.992 252.457 353.863 253.401 355.401 254.772C356.939 256.144 358.089 257.893 358.736 259.846C359.695 262.74 359.488 265.893 358.16 268.638C356.833 271.384 354.487 273.508 351.618 274.561L334.795 280.741L310.592 300.842Z" fill="#FFB6B6"/>
<path d="M117.915 206.997V269.904H162.112V206.997C162.113 206.545 161.968 206.104 161.699 205.74C161.43 205.376 161.051 205.107 160.618 204.973C160.413 204.906 160.199 204.873 159.984 204.875H120.05C119.77 204.875 119.492 204.929 119.233 205.035C118.975 205.142 118.739 205.298 118.541 205.495C118.343 205.692 118.186 205.926 118.078 206.184C117.971 206.442 117.915 206.718 117.915 206.997ZM135.163 228.612C135.175 227.372 135.677 226.187 136.561 225.314C137.444 224.441 138.638 223.951 139.881 223.951C141.125 223.951 142.319 224.441 143.202 225.314C144.086 226.187 144.588 227.372 144.6 228.612V235.911C144.593 237.155 144.093 238.345 143.209 239.222C142.325 240.099 141.129 240.592 139.881 240.592C138.634 240.592 137.438 240.099 136.554 239.222C135.67 238.345 135.17 237.155 135.163 235.911V228.612Z" fill="#2F2E41"/>
<path d="M117.78 267.892V273.958C117.781 274.272 117.906 274.573 118.129 274.796C118.351 275.019 118.652 275.145 118.967 275.148H161.061C161.377 275.146 161.679 275.02 161.901 274.797C162.124 274.574 162.248 274.272 162.248 273.958V267.892H117.78Z" fill="#3F3D56"/>
<path d="M48.3867 112.221V227.078C48.3879 228.542 48.9715 229.945 50.0095 230.98C51.0475 232.015 52.455 232.597 53.9229 232.599H224.623C226.091 232.597 227.498 232.015 228.536 230.98C229.574 229.945 230.158 228.542 230.159 227.078V112.221C230.155 110.758 229.571 109.357 228.533 108.323C227.495 107.29 226.089 106.708 224.623 106.707H53.9229C52.4563 106.708 51.0501 107.29 50.0125 108.323C48.9748 109.357 48.3902 110.758 48.3867 112.221Z" fill="#3F3D56"/>
<path d="M52.3906 113.65V225.662C52.392 226.444 52.7041 227.193 53.2587 227.746C53.8133 228.299 54.5651 228.61 55.3494 228.612H223.201C223.985 228.61 224.737 228.299 225.292 227.746C225.846 227.193 226.159 226.444 226.16 225.662V113.65C226.16 112.867 225.848 112.116 225.294 111.562C224.739 111.007 223.986 110.695 223.201 110.693H55.3494C54.5642 110.695 53.8116 111.007 53.257 111.562C52.7023 112.116 52.3907 112.867 52.3906 113.65Z" fill="white"/>
<path d="M83.5411 274.737C83.7119 274.95 83.9291 275.123 84.1763 275.241C84.4234 275.359 84.6942 275.419 84.9682 275.418H184.829C185.102 275.417 185.372 275.356 185.618 275.239C185.865 275.122 186.082 274.951 186.254 274.74C186.426 274.528 186.549 274.281 186.613 274.016C186.677 273.752 186.681 273.476 186.625 273.21L185.075 265.868C185.011 265.568 184.873 265.29 184.673 265.057C184.473 264.825 184.218 264.646 183.931 264.537C183.723 264.455 183.502 264.414 183.279 264.414H86.5122C86.2891 264.414 86.0679 264.455 85.8601 264.537C85.5732 264.646 85.3182 264.825 85.1184 265.057C84.9186 265.29 84.7802 265.568 84.716 265.868L83.1659 273.21C83.1107 273.476 83.1158 273.751 83.1807 274.015C83.2456 274.28 83.3687 274.526 83.5411 274.737Z" fill="#2F2E41"/>
<path d="M217.754 126.123H60.6958C60.5326 126.12 60.3772 126.053 60.2631 125.936C60.1489 125.82 60.085 125.664 60.085 125.501C60.085 125.338 60.1489 125.182 60.2631 125.065C60.3772 124.949 60.5326 124.882 60.6958 124.878H217.754C217.917 124.882 218.073 124.949 218.187 125.065C218.301 125.182 218.365 125.338 218.365 125.501C218.365 125.664 218.301 125.82 218.187 125.936C218.073 126.053 217.917 126.12 217.754 126.123Z" fill="#3F3D56"/>
<path d="M71.3869 121.699C73.4084 121.699 75.0472 120.028 75.0472 117.967C75.0472 115.907 73.4084 114.236 71.3869 114.236C69.3653 114.236 67.7266 115.907 67.7266 117.967C67.7266 120.028 69.3653 121.699 71.3869 121.699Z" fill="#3F3D56"/>
<path d="M84.0314 121.699C86.0529 121.699 87.6917 120.028 87.6917 117.967C87.6917 115.907 86.0529 114.236 84.0314 114.236C82.0099 114.236 80.3711 115.907 80.3711 117.967C80.3711 120.028 82.0099 121.699 84.0314 121.699Z" fill="#3F3D56"/>
<path d="M96.6769 121.699C98.6984 121.699 100.337 120.028 100.337 117.967C100.337 115.907 98.6984 114.236 96.6769 114.236C94.6554 114.236 93.0166 115.907 93.0166 117.967C93.0166 120.028 94.6554 121.699 96.6769 121.699Z" fill="#3F3D56"/>
<path d="M210.14 115.159H201.159C200.982 115.163 200.813 115.236 200.689 115.363C200.565 115.489 200.495 115.659 200.495 115.836C200.495 116.014 200.565 116.184 200.689 116.31C200.813 116.437 200.982 116.51 201.159 116.514H210.14C210.319 116.512 210.489 116.439 210.615 116.312C210.74 116.186 210.81 116.015 210.81 115.836C210.81 115.658 210.74 115.487 210.615 115.361C210.489 115.234 210.319 115.161 210.14 115.159Z" fill="#3F3D56"/>
<path d="M210.14 117.704H201.159C200.981 117.708 200.812 117.781 200.688 117.908C200.564 118.035 200.494 118.205 200.494 118.382C200.494 118.559 200.564 118.729 200.688 118.856C200.812 118.983 200.981 119.056 201.159 119.06H210.14C210.319 119.057 210.49 118.985 210.615 118.858C210.741 118.731 210.812 118.56 210.812 118.382C210.812 118.204 210.741 118.032 210.615 117.905C210.49 117.779 210.319 117.706 210.14 117.704Z" fill="#3F3D56"/>
<path d="M210.14 120.25H201.159C200.982 120.254 200.813 120.327 200.689 120.454C200.565 120.58 200.495 120.75 200.495 120.927C200.495 121.104 200.565 121.274 200.689 121.401C200.813 121.528 200.982 121.601 201.159 121.605H210.14C210.319 121.603 210.489 121.53 210.615 121.403C210.74 121.276 210.81 121.105 210.81 120.927C210.81 120.749 210.74 120.578 210.615 120.451C210.489 120.325 210.319 120.252 210.14 120.25Z" fill="#3F3D56"/>
<path d="M426.655 270.554C426.926 271.341 427.44 272.021 428.123 272.499C428.806 272.976 429.624 273.225 430.458 273.21L446.754 272.792C447.594 272.776 448.407 272.489 449.07 271.974C449.733 271.459 450.211 270.744 450.433 269.936L452.739 245.348C453.557 245.717 454.448 245.9 455.346 245.882C456.126 245.862 456.895 245.69 457.608 245.374C458.322 245.058 458.966 244.606 459.503 244.042C460.041 243.478 460.462 242.814 460.743 242.087C461.023 241.361 461.158 240.587 461.138 239.809C461.118 239.031 460.945 238.265 460.629 237.553C460.312 236.842 459.858 236.2 459.292 235.664C458.727 235.127 458.061 234.708 457.333 234.428C456.604 234.148 455.828 234.014 455.048 234.034C454.689 234.033 454.331 234.07 453.98 234.145C453.598 233.733 453.134 233.405 452.618 233.183C452.101 232.961 451.544 232.849 450.982 232.855L425.915 233.5C425.707 233.508 425.5 233.533 425.296 233.577C424.747 233.679 424.225 233.897 423.767 234.217C423.309 234.537 422.925 234.951 422.641 235.432C422.357 235.912 422.18 236.447 422.121 237.002C422.061 237.556 422.122 238.117 422.299 238.646L426.655 270.554ZM453.212 243.678L454.853 237.819C455.04 237.142 455.044 236.428 454.866 235.749C454.945 235.749 455.015 235.711 455.095 235.711C456.22 235.688 457.309 236.111 458.122 236.886C458.935 237.662 459.406 238.728 459.433 239.85C459.459 240.971 459.038 242.058 458.262 242.871C457.486 243.684 456.419 244.157 455.294 244.186C454.567 244.209 453.847 244.033 453.212 243.678Z" fill="#2F2E41"/>
<path d="M425.296 233.577C425.83 236.622 431.834 238.762 439.054 238.39C445.693 238.085 451.121 235.761 452.116 233.006C451.748 232.897 451.365 232.846 450.981 232.855L425.914 233.5C425.706 233.508 425.499 233.534 425.296 233.577Z" fill="#3F3D56"/>
<path d="M440.377 257.043C440.41 257.034 440.441 257.021 440.47 257.002L444.009 254.692C444.051 254.664 444.087 254.626 444.111 254.582C444.135 254.537 444.148 254.487 444.148 254.436C444.148 254.385 444.135 254.335 444.111 254.29C444.087 254.245 444.052 254.207 444.009 254.179L440.331 251.777C440.297 251.755 440.259 251.739 440.219 251.732C440.179 251.724 440.139 251.724 440.099 251.732C440.059 251.74 440.022 251.756 439.988 251.779C439.955 251.802 439.926 251.831 439.904 251.865C439.882 251.898 439.866 251.936 439.859 251.976C439.851 252.015 439.852 252.056 439.86 252.096C439.868 252.135 439.885 252.173 439.907 252.206C439.93 252.239 439.96 252.268 439.993 252.29L443.279 254.435L440.133 256.489C440.072 256.528 440.027 256.588 440.007 256.658C439.986 256.728 439.991 256.802 440.02 256.869C440.049 256.935 440.101 256.989 440.166 257.021C440.232 257.053 440.306 257.06 440.377 257.043H440.377Z" fill="#61A6FF"/>
<path d="M434.788 257.3C434.847 257.285 434.901 257.252 434.942 257.207C434.983 257.161 435.009 257.105 435.017 257.044C435.025 256.984 435.015 256.922 434.988 256.867C434.961 256.812 434.919 256.767 434.865 256.736L431.603 254.872L434.756 252.536C434.789 252.512 434.816 252.482 434.837 252.448C434.857 252.413 434.871 252.375 434.877 252.335C434.883 252.295 434.881 252.255 434.871 252.216C434.861 252.177 434.844 252.14 434.82 252.108C434.796 252.075 434.765 252.048 434.731 252.027C434.696 252.007 434.658 251.993 434.618 251.987C434.578 251.981 434.537 251.983 434.498 251.993C434.459 252.003 434.422 252.02 434.39 252.044L430.86 254.659C430.819 254.689 430.786 254.729 430.764 254.775C430.743 254.821 430.733 254.872 430.736 254.923C430.739 254.974 430.755 255.023 430.781 255.066C430.808 255.11 430.846 255.146 430.89 255.171L434.559 257.268C434.629 257.308 434.711 257.319 434.788 257.3Z" fill="#61A6FF"/>
<path d="M440.026 259.067C440.055 259.059 440.084 259.047 440.11 259.031C440.144 259.01 440.175 258.983 440.198 258.95C440.222 258.918 440.239 258.881 440.249 258.842C440.259 258.803 440.26 258.762 440.254 258.722C440.248 258.682 440.234 258.644 440.213 258.61L435.196 250.386C435.154 250.316 435.085 250.266 435.006 250.247C434.927 250.228 434.843 250.241 434.774 250.284C434.704 250.326 434.654 250.394 434.635 250.473C434.615 250.552 434.628 250.635 434.671 250.705L439.687 258.929C439.722 258.985 439.773 259.028 439.834 259.053C439.895 259.078 439.962 259.083 440.026 259.067Z" fill="#61A6FF"/>
<path d="M157.991 159.981H130.808C129.699 159.981 128.8 160.877 128.8 161.983V164.631C128.8 165.737 129.699 166.633 130.808 166.633H157.991C159.1 166.633 159.999 165.737 159.999 164.631V161.983C159.999 160.877 159.1 159.981 157.991 159.981Z" fill="#61A6FF"/>
<path d="M173.836 173.286H114.963C113.854 173.286 112.955 174.182 112.955 175.288V177.936C112.955 179.042 113.854 179.938 114.963 179.938H173.836C174.945 179.938 175.844 179.042 175.844 177.936V175.288C175.844 174.182 174.945 173.286 173.836 173.286Z" fill="#E6E6E6"/>
<path d="M173.836 186.59H114.963C113.854 186.59 112.955 187.487 112.955 188.592V191.241C112.955 192.346 113.854 193.243 114.963 193.243H173.836C174.945 193.243 175.844 192.346 175.844 191.241V188.592C175.844 187.487 174.945 186.59 173.836 186.59Z" fill="#E6E6E6"/>
<path d="M178.826 231.142L178.959 231.562L178.967 231.576L182.98 243.744L187.598 257.766L196.285 284.117L196.369 288.21V288.224L197.015 321.152L195.225 325.616L197.239 332.935C197.239 332.935 196.313 321.872 191.345 328.225C188.531 331.835 185.24 335.53 182.538 338.993C186.475 340.582 190.475 342.018 194.538 343.304C195.415 343.583 196.299 343.849 197.183 344.115C197.373 344.171 197.562 344.227 197.752 344.283C211.22 348.255 225.144 350.486 239.182 350.923C239.911 350.944 240.627 350.958 241.322 350.972C241.567 350.979 241.806 350.986 242.045 350.986C242.831 350.993 243.609 351 244.395 351C245.981 351 247.56 350.977 249.132 350.93C260.766 350.603 272.332 349.044 283.636 346.277C283.559 341.624 283.348 336.188 283.046 330.38C282.906 327.532 279.755 324.447 279.566 321.466C279.432 319.227 282.26 317.121 282.113 314.847C281.159 300.846 279.966 306.22 279.082 296.306C278.99 295.333 278.906 294.402 278.829 293.514C278.261 287.146 277.868 283.165 277.868 283.165L281.643 259.438L287.572 222.186L287.116 221.438L286.604 221.186L255.328 205.75L253.63 201.412C253.135 200.162 252.277 199.089 251.165 198.329C250.053 197.57 248.739 197.16 247.392 197.151L226.789 197.067C225.72 197.062 224.665 197.312 223.712 197.795C222.759 198.278 221.935 198.981 221.309 199.845L215.73 207.548L178.826 231.142Z" fill="#3F3D56"/>
<path d="M201.037 278.253L196.37 288.21L193.184 295.011L187.704 323.622L184.96 326.525L182.609 316.246L158.005 321.693C157.198 317.222 157.789 321.844 157.291 316.939C157.431 316.799 157.579 316.659 157.726 316.52C158.119 316.156 158.449 315.813 158.442 315.484C158.161 298.565 159.003 269.773 166.035 252.329C167.136 249.481 168.588 246.78 170.357 244.289C170.497 244.101 170.631 243.912 170.764 243.723C174.006 239.196 176.055 234.739 178.96 231.569V231.562C178.978 231.547 178.995 231.531 179.009 231.513C179.02 231.508 179.029 231.501 179.037 231.492L198.995 220.94L199.851 244.926L200.461 262.167L201.037 278.253Z" fill="#3F3D56"/>
<path d="M272.997 281.081L278.826 293.517L280.861 297.848L286.339 326.456L289.074 329.353L291.43 319.076L292.538 318.849L312.504 314.726L318.323 333.155C319.635 330.976 320.152 328.412 319.786 325.897C319.421 323.382 318.195 321.069 316.317 319.351C315.92 318.992 315.589 318.643 315.598 318.313C315.929 298.414 314.709 262.078 303.685 247.123C300.183 242.377 298.083 237.65 295.026 234.347C295.017 234.338 295.017 234.329 295.007 234.329L287.57 222.185L287.115 221.44L286.604 221.185L272.997 281.081Z" fill="#3F3D56"/>
<path d="M237.686 191.221C252.823 191.221 265.095 178.984 265.095 163.89C265.095 148.796 252.823 136.56 237.686 136.56C222.548 136.56 210.276 148.796 210.276 163.89C210.276 178.984 222.548 191.221 237.686 191.221Z" fill="#FFB6B6"/>
<path d="M274.733 144.8C274.521 144.574 274.265 144.392 273.98 144.267C273.696 144.142 273.389 144.075 273.078 144.07L273.491 142.929C273.625 142.57 273.661 142.181 273.596 141.804C273.53 141.426 273.365 141.072 273.117 140.779C272.869 140.485 272.548 140.263 272.185 140.134C271.823 140.006 271.433 139.975 271.055 140.047L269.554 140.335L269.695 139.335C269.749 138.963 269.706 138.583 269.568 138.232C269.43 137.882 269.203 137.574 268.91 137.337C268.616 137.101 268.266 136.945 267.893 136.884C267.521 136.824 267.139 136.861 266.786 136.992C266.464 137.118 266.118 137.171 265.773 137.147C265.428 137.122 265.093 137.021 264.793 136.851C264.491 136.686 264.229 136.457 264.025 136.181C263.821 135.904 263.68 135.587 263.611 135.25L263.089 132.735L263.033 132.6C260.487 128.368 255.59 125.289 249.599 124.161C244.265 123.148 238.797 123.664 233.525 124.148C231.434 124.345 229.072 124.565 227.103 125.768C225.43 126.798 224.015 128.859 224.304 130.938C219.107 129.35 213.533 132.521 210.771 136.52C207.499 141.279 206.964 147.241 206.878 151.903C206.644 162.931 208.926 171.954 213.644 178.725C213.989 179.216 214.075 180.24 214.757 180.584L214.616 180.357C215.379 180.737 216.154 181.35 215.865 182.006C215.034 183.896 220.552 188.073 224.44 189.453C231.532 191.974 240.962 191.759 247.593 190.851L247.827 189.287C250.22 188.962 251.905 188.342 252.379 187.373C253.216 186.662 253.929 186.024 254.551 185.435L254.557 185.429C254.569 185.417 254.594 185.398 254.606 185.386C257.602 182.522 258.297 180.89 258.61 178.406C258.912 175.971 258.377 173.499 257.829 171.273C269.357 173.051 253.289 159.03 264.03 156.319C264.153 156.281 264.278 156.25 264.405 156.227C264.719 156.153 265.032 156.08 265.334 155.994C266.787 155.601 268.178 155.008 269.468 154.234C272.469 152.412 273.46 149.995 275.01 147.272C275.234 146.884 275.327 146.435 275.278 145.991C275.228 145.546 275.037 145.129 274.733 144.8Z" fill="#2F2E41"/>
<path d="M334.628 283.027C334.622 284.1 334.61 285.603 334.56 287.462C334.554 287.719 334.548 287.983 334.542 288.253C334.462 291.669 334.382 294.534 334.253 297.717C334.247 297.938 334.241 298.152 334.228 298.373C334.056 302.814 333.785 307.985 333.318 316.173C332.451 331.298 330.937 318.252 329.418 323.558C329.344 323.822 329.264 324.134 329.19 324.502C328.96 325.838 328.572 327.141 328.034 328.385C327.228 328.863 326.398 329.323 325.579 329.783C323.248 331.078 320.88 332.323 318.493 333.507C317.152 334.169 315.805 334.819 314.452 335.445C314.236 335.543 314.027 335.641 313.818 335.733C306.888 338.929 299.746 341.647 292.442 343.866C291.015 344.296 289.594 344.713 288.155 345.099C286.654 345.516 285.153 345.909 283.634 346.277C272.331 349.044 260.765 350.604 249.131 350.932C247.562 350.981 245.981 351 244.394 351C243.607 351 242.832 350.993 242.044 350.987C241.804 350.987 241.565 350.981 241.325 350.975C240.63 350.957 239.91 350.944 239.184 350.926C225.146 350.489 211.222 348.257 197.755 344.283L197.183 344.118C196.297 343.848 195.417 343.584 194.537 343.302C190.478 342.02 186.477 340.585 182.536 338.996C179.528 337.788 176.555 336.492 173.617 335.107C173.59 335.1 173.565 335.088 173.543 335.071C172.928 334.788 172.307 334.494 171.691 334.194C171.611 334.151 171.525 334.108 171.439 334.065C169.145 332.948 166.875 331.779 164.63 330.556C162.741 326.232 160.084 325.404 158.435 321.601C157.955 320.471 157.609 319.29 157.402 318.081C157.402 318.068 157.396 318.056 157.396 318.038C157.568 320.319 156.664 313.989 157.39 318.013C157.383 317.939 157.377 317.86 157.371 317.768C157.353 317.547 157.328 317.277 157.291 316.94C155.181 296.398 155.317 272.907 154.4 253.549C154.338 252.298 154.275 251.1 154.209 249.955C154.191 249.574 154.166 249.2 154.142 248.832C154.185 248.722 154.234 248.605 154.289 248.495C154.301 248.463 154.315 248.432 154.332 248.403C154.35 248.365 154.371 248.328 154.394 248.292C154.406 248.274 154.425 248.25 154.437 248.231C154.446 248.21 154.456 248.19 154.468 248.17C154.523 248.084 154.584 247.992 154.652 247.906C154.683 247.869 154.708 247.839 154.738 247.808C154.76 247.777 154.784 247.748 154.812 247.722C154.831 247.693 154.854 247.666 154.88 247.642C154.904 247.618 154.929 247.587 154.96 247.556C154.973 247.537 154.99 247.521 155.009 247.507C155.058 247.452 155.111 247.4 155.169 247.354C155.388 247.153 155.623 246.968 155.87 246.802C155.956 246.747 156.049 246.692 156.135 246.63C156.755 246.261 157.407 245.948 158.085 245.698C158.318 245.612 158.552 245.532 158.804 245.447C158.897 245.422 158.983 245.391 159.075 245.361C159.21 245.318 159.346 245.275 159.487 245.244C160.188 245.036 160.945 244.858 161.763 244.692C161.862 244.674 161.966 244.655 162.071 244.631C162.218 244.6 162.372 244.576 162.526 244.551C162.735 244.514 162.95 244.477 163.166 244.441C164.993 244.152 167.066 243.938 169.354 243.797C169.569 243.784 169.784 243.772 170 243.76C170.252 243.748 170.504 243.735 170.763 243.723C170.978 243.711 171.199 243.705 171.421 243.698C171.636 243.686 171.857 243.68 172.085 243.674C172.706 243.655 173.346 243.637 173.998 243.625C175.856 243.588 177.812 243.6 179.867 243.643C180.82 243.668 181.792 243.692 182.788 243.735C182.856 243.735 182.918 243.741 182.979 243.741C183.846 243.772 184.72 243.809 185.618 243.858C186.245 243.889 186.879 243.919 187.513 243.956C188.109 243.993 188.712 244.03 189.321 244.073C189.795 244.097 190.268 244.134 190.748 244.165C191.154 244.195 191.56 244.226 191.966 244.25L192.52 244.287C192.821 244.312 193.123 244.33 193.43 244.361C194.107 244.416 194.784 244.471 195.472 244.526C196.155 244.588 196.85 244.649 197.545 244.71C198.241 244.772 198.942 244.839 199.643 244.907C199.717 244.913 199.785 244.919 199.852 244.925C200.492 244.993 201.132 245.054 201.778 245.121C201.925 245.134 202.079 245.146 202.227 245.164C202.842 245.226 203.47 245.298 204.092 245.364C204.282 245.385 204.472 245.405 204.663 245.425C205.15 245.478 205.63 245.524 206.12 245.581C206.766 245.655 207.425 245.723 208.064 245.808C208.562 245.864 209.061 245.919 209.559 245.98C210.34 246.072 211.134 246.17 211.927 246.275C212.229 246.311 212.53 246.348 212.831 246.391C215.095 246.673 217.383 246.986 219.709 247.311C223.233 247.808 226.813 248.348 230.418 248.93C234.029 249.513 237.66 250.128 241.312 250.777C242.235 250.942 243.158 251.108 244.086 251.28C244.505 251.359 244.923 251.439 245.341 251.519C246.055 251.648 246.768 251.782 247.482 251.917C248.196 252.052 248.909 252.187 249.623 252.328C250.472 252.494 251.327 252.66 252.175 252.825C257.767 253.929 263.328 255.107 268.753 256.34C269.645 256.542 270.537 256.751 271.423 256.953C273.195 257.364 274.95 257.781 276.689 258.204C277.168 258.315 277.642 258.431 278.116 258.548C279.297 258.842 280.478 259.137 281.64 259.437L281.843 259.492C282.698 259.701 283.535 259.916 284.372 260.136C286.346 260.652 288.288 261.173 290.197 261.701C291.464 262.05 292.717 262.404 293.955 262.762C295.807 263.295 297.622 263.835 299.387 264.381C299.824 264.516 300.261 264.651 300.691 264.78C301.983 265.178 303.256 265.583 304.493 265.988C305.477 266.307 306.436 266.632 307.384 266.957C308.331 267.282 309.26 267.607 310.17 267.932C310.755 268.141 311.333 268.362 311.911 268.57C312.742 268.877 313.56 269.184 314.359 269.49C314.605 269.582 314.845 269.68 315.085 269.772C315.239 269.84 315.387 269.895 315.534 269.956C315.823 270.073 316.119 270.183 316.402 270.3C316.691 270.41 316.974 270.527 317.257 270.649C317.533 270.76 317.816 270.876 318.087 270.993C318.364 271.103 318.635 271.22 318.905 271.343C319.133 271.435 319.354 271.533 319.57 271.631C320.006 271.821 320.443 272.011 320.868 272.207C321.077 272.306 321.286 272.397 321.495 272.496L321.975 272.716C322.042 272.753 322.11 272.784 322.178 272.815C322.332 272.888 322.491 272.968 322.645 273.042C323.002 273.207 323.353 273.385 323.697 273.551C324.159 273.784 324.608 274.017 325.038 274.244C325.475 274.477 325.899 274.71 326.305 274.937C326.373 274.974 326.434 275.01 326.502 275.047C326.594 275.096 326.687 275.151 326.779 275.201C327.093 275.378 327.394 275.562 327.696 275.74C328.286 276.102 328.846 276.458 329.369 276.814C329.486 276.893 329.596 276.973 329.713 277.047C330.101 277.323 330.47 277.593 330.814 277.869C330.814 277.875 330.814 277.875 330.82 277.875C330.937 277.961 331.048 278.053 331.159 278.139C331.251 278.224 331.349 278.298 331.442 278.384C331.762 278.66 332.057 278.924 332.327 279.193C332.418 279.277 332.504 279.365 332.586 279.457C332.622 279.487 332.655 279.52 332.684 279.555C332.807 279.678 332.918 279.801 333.023 279.923C333.039 279.94 333.053 279.959 333.066 279.979C333.213 280.15 333.349 280.322 333.478 280.494C333.539 280.58 333.607 280.666 333.662 280.751C333.736 280.856 333.81 280.966 333.871 281.07C333.927 281.156 333.976 281.248 334.025 281.334C334.156 281.555 334.267 281.787 334.357 282.027C334.427 282.19 334.482 282.358 334.523 282.53C334.57 282.693 334.605 282.859 334.628 283.027Z" fill="#2F2E41"/>
<path opacity="0.2" d="M334.628 283.027C334.622 284.1 334.61 285.603 334.561 287.461C334.555 287.719 334.542 287.983 334.536 288.253C334.475 290.859 334.382 294.079 334.253 297.717C334.247 297.937 334.241 298.152 334.229 298.373C334.056 302.814 333.786 307.984 333.318 316.173C332.451 331.298 330.938 318.252 329.418 323.558C325.198 320.969 320.573 318.258 315.627 315.473C314.735 314.971 313.835 314.466 312.927 313.958C303.035 308.457 291.987 302.691 280.454 296.981C279.998 296.754 279.537 296.527 279.082 296.306C252.662 283.284 223.824 270.618 200.462 262.166C195.953 260.535 191.647 259.063 187.599 257.769C179.073 255.051 171.704 253.15 166.032 252.328C160.127 251.469 156.049 251.776 154.4 253.549C154.339 252.297 154.275 251.099 154.21 249.954C154.185 249.574 154.16 249.2 154.136 248.832C154.174 248.731 154.223 248.635 154.271 248.537C154.278 248.523 154.282 248.509 154.29 248.495C154.301 248.463 154.316 248.432 154.333 248.403C154.351 248.364 154.371 248.328 154.394 248.292C154.414 248.249 154.439 248.208 154.468 248.169C154.523 248.084 154.585 247.992 154.652 247.906C154.702 247.841 154.756 247.78 154.812 247.722C154.831 247.692 154.854 247.665 154.88 247.642C154.905 247.617 154.929 247.587 154.96 247.556C154.973 247.537 154.99 247.52 155.009 247.507C155.058 247.451 155.111 247.4 155.169 247.354C155.389 247.152 155.623 246.968 155.87 246.802C155.957 246.746 156.049 246.691 156.135 246.63C156.755 246.26 157.408 245.948 158.085 245.698C158.319 245.612 158.552 245.532 158.805 245.446C158.897 245.422 158.983 245.391 159.075 245.36C159.211 245.317 159.346 245.274 159.487 245.244C160.189 245.035 160.945 244.857 161.763 244.692C162.009 244.643 162.268 244.594 162.526 244.551C162.735 244.514 162.951 244.477 163.166 244.44C164.993 244.152 167.066 243.937 169.354 243.796C169.569 243.784 169.785 243.772 170 243.759C170.252 243.747 170.504 243.735 170.763 243.723C170.978 243.71 171.2 243.704 171.421 243.698C171.636 243.686 171.858 243.68 172.085 243.674C172.707 243.655 173.346 243.637 173.998 243.624C175.856 243.594 177.812 243.606 179.867 243.649C180.82 243.667 181.792 243.698 182.789 243.741C182.85 243.741 182.918 243.747 182.979 243.747C183.847 243.772 184.726 243.815 185.618 243.858C186.246 243.888 186.879 243.919 187.513 243.956C188.11 243.992 188.712 244.029 189.321 244.072C189.795 244.097 190.269 244.134 190.748 244.164C191.154 244.195 191.56 244.226 191.966 244.25C192.452 244.287 192.938 244.324 193.431 244.361C194.107 244.416 194.784 244.471 195.473 244.526C196.156 244.587 196.851 244.649 197.546 244.71C198.241 244.771 198.942 244.839 199.643 244.906C199.717 244.912 199.785 244.919 199.853 244.925C200.492 244.992 201.132 245.054 201.778 245.121C205.358 245.483 209.043 245.906 212.832 246.391C215.096 246.679 217.388 246.988 219.709 247.317C223.234 247.814 226.814 248.353 230.419 248.93C234.029 249.513 237.661 250.128 241.313 250.776C242.235 250.942 243.158 251.107 244.087 251.279C245.219 251.488 246.351 251.7 247.482 251.917C248.196 252.052 248.909 252.187 249.623 252.328C250.472 252.494 251.327 252.659 252.176 252.825C257.767 253.929 263.328 255.107 268.754 256.339C269.646 256.542 270.538 256.75 271.423 256.953C273.195 257.364 274.95 257.781 276.689 258.204C277.169 258.321 277.642 258.437 278.116 258.554C279.303 258.848 280.478 259.142 281.641 259.437V259.443C281.708 259.455 281.776 259.474 281.844 259.492C282.693 259.707 283.535 259.921 284.372 260.142C286.347 260.657 288.288 261.177 290.197 261.7C291.464 262.056 292.719 262.406 293.956 262.761C295.807 263.301 297.622 263.841 299.387 264.381C299.824 264.515 300.261 264.65 300.691 264.779C301.983 265.184 303.25 265.587 304.493 265.988C305.477 266.306 306.437 266.632 307.384 266.957C308.331 267.282 309.26 267.607 310.171 267.932C310.761 268.14 311.339 268.355 311.912 268.564C312.748 268.87 313.56 269.177 314.36 269.49C314.606 269.582 314.846 269.68 315.086 269.772C315.535 269.944 315.971 270.122 316.402 270.299C316.691 270.41 316.974 270.526 317.257 270.649C317.534 270.76 317.817 270.876 318.087 270.993C318.364 271.103 318.635 271.22 318.906 271.342C319.133 271.434 319.355 271.532 319.57 271.63C320.007 271.821 320.443 272.011 320.868 272.207C321.077 272.305 321.286 272.397 321.495 272.495L321.975 272.716C322.043 272.753 322.11 272.784 322.178 272.814C322.701 273.06 323.205 273.305 323.697 273.55C324.159 273.783 324.608 274.016 325.039 274.243C325.549 274.513 326.035 274.777 326.503 275.047C326.595 275.096 326.687 275.151 326.779 275.2C327.093 275.378 327.394 275.562 327.696 275.74C328.286 276.102 328.846 276.458 329.369 276.813C329.886 277.169 330.366 277.519 330.815 277.868C330.815 277.874 330.815 277.874 330.821 277.874C331.036 278.046 331.245 278.218 331.442 278.384C331.762 278.66 332.057 278.923 332.328 279.193C332.419 279.276 332.505 279.364 332.586 279.457C332.622 279.486 332.655 279.519 332.685 279.555C332.814 279.696 332.943 279.837 333.066 279.978C333.214 280.15 333.349 280.322 333.478 280.493C333.54 280.579 333.607 280.665 333.663 280.751C333.737 280.855 333.81 280.966 333.872 281.07C333.927 281.156 333.976 281.248 334.026 281.334C334.156 281.555 334.267 281.787 334.358 282.027C334.425 282.19 334.481 282.358 334.524 282.53C334.57 282.693 334.605 282.859 334.628 283.027Z" fill="black"/>
</g>
<defs>
<clipPath id="clip0_718_305">
<rect width="484" height="351" fill="white"/>
</clipPath>
</defs>
</svg>
